REM DIRINDEX 1\3,1\4,1\5,1\6,1\2\7,1\2\8,1\2\9,1\10
REM DIRNAME cjc056,folder01,folder02,folder03,folder04,folder05,folder06,folder07,folder08,folder09
TITLE ""
FILE "1-20 Level 1-165-175.mp3" MP3
  TRACK 01 AUDIO
    TITLE "0:"
    INDEX 01 00:00:00
  TRACK 02 AUDIO
    TITLE "10:cjc056_0535"
    INDEX 01 00:00:01
  TRACK 03 AUDIO
    TITLE "0:"
    INDEX 01 00:03:25
  TRACK 04 AUDIO
    TITLE "7:cjc056_0536"
    INDEX 01 00:03:72
  TRACK 05 AUDIO
    TITLE "0:"
    INDEX 01 00:06:37
  TRACK 06 AUDIO
    TITLE "8:cjc056_0537"
    INDEX 01 00:06:51
  TRACK 07 AUDIO
    TITLE "0:"
    INDEX 01 00:08:73
  TRACK 08 AUDIO
    TITLE "9:cjc056_0538"
    INDEX 01 00:09:10
  TRACK 09 AUDIO
    TITLE "0:"
    INDEX 01 00:12:12
  TRACK 10 AUDIO
    TITLE "7:cjc056_0539"
    INDEX 01 00:13:04
  TRACK 11 AUDIO
    TITLE "0:"
    INDEX 01 00:14:19
  TRACK 12 AUDIO
    TITLE "8:cjc056_0540"
    INDEX 01 00:14:35
  TRACK 13 AUDIO
    TITLE "0:"
    INDEX 01 00:16:69
  TRACK 14 AUDIO
    TITLE "9:cjc056_0541"
    INDEX 01 00:17:06
  TRACK 15 AUDIO
    TITLE "0:"
    INDEX 01 00:19:65
  TRACK 16 AUDIO
    TITLE "7:cjc056_0542"
    INDEX 01 00:20:43
  TRACK 17 AUDIO
    TITLE "0:"
    INDEX 01 00:21:62
  TRACK 18 AUDIO
    TITLE "8:cjc056_0543"
    INDEX 01 00:22:03
  TRACK 19 AUDIO
    TITLE "0:"
    INDEX 01 00:24:43
  TRACK 20 AUDIO
    TITLE "9:cjc056_0544"
    INDEX 01 00:24:55
  TRACK 21 AUDIO
    TITLE "0:"
    INDEX 01 00:28:13
  TRACK 22 AUDIO
    TITLE "7:cjc056_0545"
    INDEX 01 00:28:64
  TRACK 23 AUDIO
    TITLE "0:"
    INDEX 01 00:30:08
  TRACK 24 AUDIO
    TITLE "8:cjc056_0546"
    INDEX 01 00:30:18
  TRACK 25 AUDIO
    TITLE "0:"
    INDEX 01 00:31:41
  TRACK 26 AUDIO
    TITLE "9:cjc056_0547"
    INDEX 01 00:31:53
  TRACK 27 AUDIO
    TITLE "0:"
    INDEX 01 00:34:36
  TRACK 28 AUDIO
    TITLE "7:cjc056_0548"
    INDEX 01 00:35:12
  TRACK 29 AUDIO
    TITLE "0:"
    INDEX 01 00:36:31
  TRACK 30 AUDIO
    TITLE "8:cjc056_0549"
    INDEX 01 00:36:44
  TRACK 31 AUDIO
    TITLE "0:"
    INDEX 01 00:38:16
  TRACK 32 AUDIO
    TITLE "9:cjc056_0550"
    INDEX 01 00:38:30
  TRACK 33 AUDIO
    TITLE "0:"
    INDEX 01 00:40:21
  TRACK 34 AUDIO
    TITLE "7:cjc056_0551"
    INDEX 01 00:40:72
  TRACK 35 AUDIO
    TITLE "0:"
    INDEX 01 00:42:18
  TRACK 36 AUDIO
    TITLE "8:cjc056_0552"
    INDEX 01 00:42:29
  TRACK 37 AUDIO
    TITLE "0:"
    INDEX 01 00:43:40
  TRACK 38 AUDIO
    TITLE "9:cjc056_0553"
    INDEX 01 00:43:52
  TRACK 39 AUDIO
    TITLE "0:"
    INDEX 01 00:45:55
  TRACK 40 AUDIO
    TITLE "7:cjc056_0554"
    INDEX 01 00:46:33
  TRACK 41 AUDIO
    TITLE "0:"
    INDEX 01 00:47:48
  TRACK 42 AUDIO
    TITLE "8:cjc056_0555"
    INDEX 01 00:47:62
  TRACK 43 AUDIO
    TITLE "0:"
    INDEX 01 00:48:71
  TRACK 44 AUDIO
    TITLE "9:cjc056_0556"
    INDEX 01 00:49:10
  TRACK 45 AUDIO
    TITLE "0:"
    INDEX 01 00:51:63
  TRACK 46 AUDIO
    TITLE "7:cjc056_0557"
    INDEX 01 00:52:39
  TRACK 47 AUDIO
    TITLE "0:"
    INDEX 01 00:53:70
  TRACK 48 AUDIO
    TITLE "8:cjc056_0558"
    INDEX 01 00:54:11
  TRACK 49 AUDIO
    TITLE "0:"
    INDEX 01 00:55:20
  TRACK 50 AUDIO
    TITLE "9:cjc056_0559"
    INDEX 01 00:55:32
  TRACK 51 AUDIO
    TITLE "0:"
    INDEX 01 00:58:11
  TRACK 52 AUDIO
    TITLE "7:cjc056_0560"
    INDEX 01 00:58:66
  TRACK 53 AUDIO
    TITLE "0:"
    INDEX 01 01:00:39
  TRACK 54 AUDIO
    TITLE "8:cjc056_0561"
    INDEX 01 01:00:53
  TRACK 55 AUDIO
    TITLE "0:"
    INDEX 01 01:02:05
  TRACK 56 AUDIO
    TITLE "9:cjc056_0562"
    INDEX 01 01:02:18
  TRACK 57 AUDIO
    TITLE "0:"
    INDEX 01 01:05:11
  TRACK 58 AUDIO
    TITLE "7:cjc056_0563"
    INDEX 01 01:05:62
  TRACK 59 AUDIO
    TITLE "0:"
    INDEX 01 01:07:04
  TRACK 60 AUDIO
    TITLE "8:cjc056_0564"
    INDEX 01 01:07:19
  TRACK 61 AUDIO
    TITLE "0:"
    INDEX 01 01:08:52
  TRACK 62 AUDIO
    TITLE "9:cjc056_0565"
    INDEX 01 01:08:68
  TRACK 63 AUDIO
    TITLE "0:"
    INDEX 01 01:12:26
  TRACK 64 AUDIO
    TITLE "7:cjc056_0566"
    INDEX 01 01:13:02
  TRACK 65 AUDIO
    TITLE "0:"
    INDEX 01 01:14:12
  TRACK 66 AUDIO
    TITLE "8:cjc056_0567"
    INDEX 01 01:14:27
  TRACK 67 AUDIO
    TITLE "0:"
    INDEX 01 01:15:48
  TRACK 68 AUDIO
    TITLE "9:cjc056_0568"
    INDEX 01 01:15:56
  TRACK 69 AUDIO
    TITLE "0:"
    INDEX 01 01:19:46
